<?xml version="1.0" encoding="utf-8"?>
<!-- Generator: Adobe Illustrator 22.1.0, SVG Export Plug-In . SVG Version: 6.00 Build 0)  -->
<svg version="1.1"
	 id="svg2" inkscape:version="0.91 r13725" sodipodi:docname="alrao.svg" xmlns:cc="http://creativecommons.org/ns#" xmlns:dc="http://purl.org/dc/elements/1.1/" xmlns:inkscape="http://www.inkscape.org/namespaces/inkscape" xmlns:osb="http://www.openswatchbook.org/uri/2009/osb" xmlns:rdf="http://www.w3.org/1999/02/22-rdf-syntax-ns#" xmlns:sodipodi="http://sodipodi.sourceforge.net/DTD/sodipodi-0.dtd" xmlns:svg="http://www.w3.org/2000/svg"
	 xmlns="http://www.w3.org/2000/svg" xmlns:xlink="http://www.w3.org/1999/xlink" x="0px" y="0px" viewBox="0 0 419.5 595.3"
	 style="enable-background:new 0 0 419.5 595.3;" xml:space="preserve">
<style type="text/css">
	.st0{opacity:0.41;}
	.st1{fill:#FEC775;}
	.st2{fill:#BF9658;}
	.st3{fill:none;}
	.st4{stroke:#000000;}
	.st5{fill:#4D4DFF;fill-opacity:0.5704;stroke:#3D4766;stroke-width:0.5774;}
	.st6{font-family:'CMUSerif-Roman';}
	.st7{font-size:12px;}
	.st8{fill:none;stroke:#000000;}
	.st9{fill:#E5C6DF;stroke:#D88EBD;stroke-width:0.5;}
	.st10{fill:#4D4DFF;fill-opacity:0.5704;stroke:#354985;stroke-width:0.4414;}
	.st11{fill:#CBCBCB;stroke:#848587;stroke-width:0.5;}
	.st12{fill:none;stroke:#000000;stroke-dasharray:1,3;}
	.st13{fill:none;stroke:#000000;stroke-dasharray:2.76,0.92;}
	.st14{font-size:18px;}
</style>
<g id="rect30598" class="st0">
	<path class="st1" d="M34.7,152.8h350.1c5.6,0,10.2,4.6,10.2,10.2v129.4c0,5.6-4.6,10.2-10.2,10.2H34.7c-5.6,0-10.2-4.6-10.2-10.2
		V163C24.5,157.4,29.1,152.8,34.7,152.8z"/>
	<path class="st2" d="M384.8,303.2H34.7c-5.9,0-10.7-4.8-10.7-10.7V163c0-5.9,4.8-10.7,10.7-10.7h350.1c5.9,0,10.7,4.8,10.7,10.7
		v129.4C395.5,298.4,390.7,303.2,384.8,303.2z M34.7,153.3c-5.4,0-9.7,4.4-9.7,9.7v129.4c0,5.4,4.4,9.7,9.7,9.7h350.1
		c5.4,0,9.7-4.4,9.7-9.7V163c0-5.4-4.4-9.7-9.7-9.7H34.7z"/>
</g>
<g id="rect30598_1_" class="st0">
	<path class="st1" d="M34.7,308.6h350.1c5.6,0,10.2,4.6,10.2,10.2v136.4c0,5.6-4.6,10.2-10.2,10.2H34.7c-5.6,0-10.2-4.6-10.2-10.2
		V318.8C24.5,313.2,29.1,308.6,34.7,308.6z"/>
	<path class="st2" d="M384.8,465.9H34.7c-5.9,0-10.7-4.8-10.7-10.7V318.8c0-5.9,4.8-10.7,10.7-10.7h350.1c5.9,0,10.7,4.8,10.7,10.7
		v136.4C395.5,461.1,390.7,465.9,384.8,465.9z M34.7,309.1c-5.4,0-9.7,4.4-9.7,9.7v136.4c0,5.4,4.4,9.7,9.7,9.7h350.1
		c5.4,0,9.7-4.4,9.7-9.7V318.8c0-5.3-4.4-9.7-9.7-9.7H34.7z"/>
</g>
<sodipodi:namedview  bordercolor="#666666" borderopacity="1.0" id="base" inkscape:connector-spacing="20" inkscape:current-layer="layer3" inkscape:cx="291.31857" inkscape:cy="186.64725" inkscape:document-units="px" inkscape:pageopacity="0.0" inkscape:pageshadow="2" inkscape:snap-bbox="false" inkscape:snap-grids="true" inkscape:window-height="779" inkscape:window-maximized="0" inkscape:window-width="1280" inkscape:window-x="0" inkscape:window-y="0" inkscape:zoom="1.4" pagecolor="#ffffff" showgrid="false">
	</sodipodi:namedview>
<path class="st3" d=""/>
<path id="path9496-1" inkscape:connector-curvature="0" class="st4" d="M209.8,89.3"/>
<g>
	<circle id="path3397-9-5-6" class="st5" cx="54.1" cy="337.3" r="17.6"/>
	
		<ellipse id="path3397-3-0-9" transform="matrix(0.9951 -9.853760e-02 9.853760e-02 0.9951 -32.4741 16.9872)" class="st5" cx="155.7" cy="337.3" rx="17.6" ry="17.6"/>
	
		<ellipse id="path3397-3-0-9_1_" transform="matrix(0.9951 -9.853762e-02 9.853762e-02 0.9951 -31.4549 37.6238)" class="st5" cx="365.2" cy="337.3" rx="17.6" ry="17.6"/>
</g>
<g>
	<circle id="path3397-9-5-6_1_" class="st5" cx="54.1" cy="422.1" r="17.6"/>
	
		<ellipse id="path3397-3-0-9_6_" transform="matrix(0.9951 -9.853760e-02 9.853760e-02 0.9951 -40.8331 17.4)" class="st5" cx="155.7" cy="422.1" rx="17.6" ry="17.6"/>
	
		<ellipse id="path3397-3-0-9_4_" transform="matrix(0.9951 -9.853762e-02 9.853762e-02 0.9951 -39.8138 38.0366)" class="st5" cx="365.2" cy="422.1" rx="17.6" ry="17.6"/>
</g>
<g>
	<circle id="path3397-9-5-6_4_" class="st5" cx="109.2" cy="506.9" r="17.6"/>
	
		<ellipse id="path3397-3-0-9_10_" transform="matrix(0.9951 -9.853760e-02 9.853760e-02 0.9951 -48.929 23.1366)" class="st5" cx="209.8" cy="506.9" rx="17.6" ry="17.6"/>
	
		<ellipse id="path3397-3-0-9_8_" transform="matrix(0.9951 -9.853762e-02 9.853762e-02 0.9951 -48.4398 33.0427)" class="st5" cx="310.3" cy="506.9" rx="17.6" ry="17.6"/>
</g>
<text transform="matrix(0 -1 1 0 407.5408 438.129)" class="st6 st7">Pre-classifier model</text>
<text transform="matrix(0 -1 1 0 407.5403 251.6277)" class="st6 st7">Classifier</text>
<text transform="matrix(1 0 0 1 193.7744 542.9043)" class="st6 st7">Input</text>
<text transform="matrix(1 0 0 1 190.4562 139.9131)" class="st6 st7">Output</text>
<g id="path9496" inkscape:connector-curvature="0">
	<g>
		<line class="st8" x1="77.9" y1="204.4" x2="77.9" y2="193.9"/>
		<g>
			<polygon points="79.7,195.3 77.9,194.5 76,195.3 77.9,190.9 			"/>
		</g>
	</g>
</g>
<path class="st9" d="M114.4,276.1h-73c-6.6,0-12-5.4-12-12v-47.9c0-6.6,5.4-12,12-12h73c6.6,0,12,5.4,12,12v47.9
	C126.4,270.7,121,276.1,114.4,276.1z"/>
<g>
	<path id="path8966-3" inkscape:connector-curvature="0" class="st8" d="M77.9,248.4v-12.2"/>
	<circle id="path3397-3-0-9-5" class="st10" cx="77.9" cy="259.8" r="11.2"/>
	<g id="g9262">
		<path id="path8966-6" inkscape:connector-curvature="0" class="st8" d="M109.6,248.6v-12.4"/>
	</g>
	<circle id="path3397-3-7-1-2-3" class="st10" cx="109.6" cy="259.8" r="11.2"/>
	<path id="path8966" inkscape:connector-curvature="0" class="st8" d="M46.1,248.4l0.1-12.2"/>
	<circle id="path3397-9-5-6-7" class="st10" cx="46.1" cy="259.8" r="11.2"/>
</g>
<rect id="rect4947" x="34.9" y="214.6" class="st11" width="86" height="21.6"/>
<text transform="matrix(1 0 0 1 56.2449 229.1026)" class="st6 st7">Softmax</text>
<g id="path9496_1_" inkscape:connector-curvature="0">
	<g>
		<line class="st8" x1="187.4" y1="204.4" x2="187.4" y2="193.9"/>
		<g>
			<polygon points="189.3,195.3 187.4,194.5 185.6,195.3 187.4,190.9 			"/>
		</g>
	</g>
</g>
<path class="st9" d="M223.9,276.1h-73c-6.6,0-12-5.4-12-12v-47.9c0-6.6,5.4-12,12-12h73c6.6,0,12,5.4,12,12v47.9
	C235.9,270.7,230.5,276.1,223.9,276.1z"/>
<g>
	<path id="path8966-3_1_" inkscape:connector-curvature="0" class="st8" d="M187.4,248.4v-12.2"/>
	<circle id="path3397-3-0-9-5_1_" class="st10" cx="187.4" cy="259.8" r="11.2"/>
	<g id="g9262_1_">
		<path id="path8966-6_1_" inkscape:connector-curvature="0" class="st8" d="M219.2,248.6v-12.4"/>
	</g>
	<circle id="path3397-3-7-1-2-3_1_" class="st10" cx="219.2" cy="259.8" r="11.2"/>
	<path id="path8966_1_" inkscape:connector-curvature="0" class="st8" d="M155.7,248.4l0.1-12.2"/>
	<circle id="path3397-9-5-6-7_1_" class="st10" cx="155.7" cy="259.8" r="11.2"/>
</g>
<rect id="rect4947_1_" x="144.5" y="214.6" class="st11" width="86" height="21.6"/>
<text transform="matrix(1 0 0 1 165.7946 229.1026)" class="st6 st7">Softmax</text>
<g id="path9496_2_" inkscape:connector-curvature="0">
	<g>
		<line class="st8" x1="341.8" y1="204.4" x2="341.8" y2="193.9"/>
		<g>
			<polygon points="343.7,195.3 341.8,194.5 340,195.3 341.8,190.9 			"/>
		</g>
	</g>
</g>
<path class="st9" d="M378.3,276.1h-73c-6.6,0-12-5.4-12-12v-47.9c0-6.6,5.4-12,12-12h73c6.6,0,12,5.4,12,12v47.9
	C390.3,270.7,384.9,276.1,378.3,276.1z"/>
<g>
	<path id="path8966-3_2_" inkscape:connector-curvature="0" class="st8" d="M341.8,248.4v-12.2"/>
	<circle id="path3397-3-0-9-5_4_" class="st10" cx="341.8" cy="259.8" r="11.2"/>
	<g id="g9262_2_">
		<path id="path8966-6_2_" inkscape:connector-curvature="0" class="st8" d="M373.6,248.6v-12.4"/>
	</g>
	<circle id="path3397-3-7-1-2-3_4_" class="st10" cx="373.6" cy="259.8" r="11.2"/>
	<path id="path8966_2_" inkscape:connector-curvature="0" class="st8" d="M310,248.4l0.1-12.2"/>
	<circle id="path3397-9-5-6-7_4_" class="st10" cx="310.1" cy="259.8" r="11.2"/>
</g>
<rect id="rect4947_2_" x="298.8" y="214.6" class="st11" width="86" height="21.6"/>
<text transform="matrix(1 0 0 1 320.1881 229.1026)" class="st6 st7">Softmax</text>
<rect id="rect4947-1" x="29.4" y="167.7" class="st11" width="360.9" height="23.2"/>
<text transform="matrix(1 0 0 1 165.7164 182.9854)" class="st6 st7">Model Averaging</text>
<g>
	
		<g id="path9478" inkscape:connection-start="#path3397-9-5-6" inkscape:connector-curvature="0" inkscape:connector-type="polyline" sodipodi:nodetypes="cc">
		<g>
			<line class="st12" x1="54.1" y1="319.6" x2="54.1" y2="282"/>
			<g>
				<polygon points="57.8,284.8 54.1,283.3 50.4,284.8 54.1,276.1 				"/>
			</g>
		</g>
	</g>
	
		<g id="path9480" inkscape:connection-start="#path3397-3-0-9" inkscape:connector-curvature="0" inkscape:connector-type="polyline">
		<g>
			<line class="st12" x1="142.7" y1="325.4" x2="92.6" y2="280.1"/>
			<g>
				<polygon points="97.1,279.2 93.5,280.9 92.2,284.7 88.1,276.1 				"/>
			</g>
		</g>
	</g>
	
		<g id="path9482" inkscape:connection-start="#path3397-3-7-1-2" inkscape:connector-curvature="0" inkscape:connector-type="polyline" sodipodi:nodetypes="cc">
		<g>
			<line class="st12" x1="347.5" y1="334.2" x2="122.5" y2="277.6"/>
			<g>
				<polygon points="126.1,274.7 123.7,277.9 124.3,281.9 116.7,276.1 				"/>
			</g>
		</g>
	</g>
</g>
<g id="path9486" inkscape:connection-start="#path3397-3-0-9" inkscape:connector-curvature="0" inkscape:connector-type="polyline" sodipodi:nodetypes="cc">
	<g>
		<line class="st13" x1="162.5" y1="321" x2="184.5" y2="281.3"/>
		<g>
			<polygon points="186.4,285.6 183.9,282.4 179.9,282 187.4,276.1 			"/>
		</g>
	</g>
</g>
<g id="path9486_1_" inkscape:connection-start="#path3397-3-0-9" inkscape:connector-curvature="0" inkscape:connector-type="polyline" sodipodi:nodetypes="cc">
	<g>
		<line class="st13" x1="68.5" y1="327.1" x2="148.9" y2="279.2"/>
		<g>
			<polygon points="148.4,283.8 147.8,279.8 144.6,277.4 154,276.1 			"/>
		</g>
	</g>
</g>
<g id="path9488" inkscape:connection-start="#path3397-3-7-1-2" inkscape:connector-curvature="0" inkscape:connector-type="polyline" sodipodi:nodetypes="cc">
	<g>
		<line class="st13" x1="348.5" y1="331.3" x2="224.7" y2="278.5"/>
		<g>
			<polygon points="228.7,276.2 225.8,279 225.8,283 219.2,276.1 			"/>
		</g>
	</g>
</g>
<g id="path9490" inkscape:connection-start="#path3397-9-5-6" inkscape:connector-curvature="0" inkscape:connector-type="polyline" sodipodi:nodetypes="cc">
	<g>
		<line class="st8" x1="70.9" y1="332" x2="304.2" y2="277.1"/>
		<g>
			<polygon points="302.3,281.4 303,277.4 300.7,274.1 310,275.7 			"/>
		</g>
	</g>
</g>
<g id="path9492" inkscape:connection-start="#path3397-3-0-9" inkscape:connector-curvature="0" inkscape:connector-type="polyline" sodipodi:nodetypes="cc">
	<g>
		<line class="st8" x1="172.4" y1="331.3" x2="336.2" y2="278"/>
		<g>
			<polygon points="334.6,282.4 335,278.4 332.3,275.3 341.8,276.1 			"/>
		</g>
	</g>
</g>
<g id="path9494" inkscape:connection-start="#path3397-3-7-1-2" inkscape:connector-curvature="0" inkscape:connector-type="polyline" sodipodi:nodetypes="cc">
	<g>
		<line class="st8" x1="365.2" y1="319.7" x2="365.2" y2="282.1"/>
		<g>
			<polygon points="368.9,284.9 365.2,283.3 361.5,284.9 365.2,276.1 			"/>
		</g>
	</g>
</g>
<g id="path9496_3_" inkscape:connector-curvature="0">
	<g>
		<line class="st8" x1="209.8" y1="167.7" x2="209.8" y2="149"/>
		<g>
			<polygon points="211.6,150.4 209.8,149.6 207.9,150.4 209.8,146 			"/>
		</g>
	</g>
</g>
<g>
	<g>
		<line class="st8" x1="54.1" y1="404.4" x2="54.1" y2="361.7"/>
		<g>
			<polygon points="57.8,364.6 54.1,363 50.4,364.6 54.1,355.8 			"/>
		</g>
	</g>
</g>
<g>
	<g>
		<line class="st12" x1="155.7" y1="404.4" x2="155.7" y2="361.7"/>
		<g>
			<polygon points="159.4,364.6 155.7,363 152,364.6 155.7,355.8 			"/>
		</g>
	</g>
</g>
<g>
	<g>
		<line class="st12" x1="67.3" y1="410.4" x2="137.4" y2="352.8"/>
		<g>
			<polygon points="137.6,357.5 136.4,353.6 132.9,351.7 142,349 			"/>
		</g>
	</g>
</g>
<g>
	<g>
		<line class="st8" x1="143.5" y1="409.4" x2="70.7" y2="354"/>
		<g>
			<polygon points="75.1,352.7 71.6,354.7 70.6,358.6 65.9,350.4 			"/>
		</g>
	</g>
</g>
<g>
	<g>
		<line class="st13" x1="365.2" y1="404.4" x2="365.2" y2="360.9"/>
		<g>
			<polygon points="368.9,363.7 365.2,362.1 361.5,363.7 365.2,354.9 			"/>
		</g>
	</g>
</g>
<g>
	<g>
		<line class="st12" x1="348.5" y1="416.1" x2="176.6" y2="348.3"/>
		<g>
			<polygon points="180.5,345.9 177.7,348.7 177.8,352.8 171,346.1 			"/>
		</g>
	</g>
</g>
<g>
	<g>
		<line class="st13" x1="70.5" y1="415.7" x2="342.2" y2="342.7"/>
		<g>
			<polygon points="340.4,347 341,343 338.5,339.9 348,341.2 			"/>
		</g>
	</g>
</g>
<g>
	<g>
		<line class="st13" x1="172" y1="415.2" x2="344.4" y2="348.3"/>
		<g>
			<polygon points="343.1,352.8 343.2,348.8 340.4,345.9 349.9,346.2 			"/>
		</g>
	</g>
</g>
<g>
	<g>
		<line class="st8" x1="347.5" y1="420.1" x2="76.3" y2="345.3"/>
		<g>
			<polygon points="80,342.4 77.5,345.6 78,349.6 70.5,343.7 			"/>
		</g>
	</g>
</g>
<text transform="matrix(1 0 0 1 257.1328 240.1699)" class="st6 st14">...</text>
<text transform="matrix(1 0 0 1 259.7757 337.2524)" class="st6 st14">...</text>
<text transform="matrix(1 0 0 1 260.9658 422.0826)" class="st6 st14">...</text>
<g>
	<g>
		<line class="st8" x1="117.7" y1="491.4" x2="146" y2="443.5"/>
		<g>
			<polygon points="147.7,447.8 145.3,444.6 141.3,444.1 149,438.4 			"/>
		</g>
	</g>
</g>
<g>
	<g>
		<line class="st13" x1="99.7" y1="492.1" x2="64.9" y2="443"/>
		<g>
			<polygon points="69.5,443.1 65.6,444 63.5,447.4 61.4,438.1 			"/>
		</g>
	</g>
</g>
<g>
	<g>
		<line class="st8" x1="200.7" y1="491.8" x2="168.1" y2="442.2"/>
		<g>
			<polygon points="172.8,442.5 168.8,443.2 166.6,446.6 164.9,437.2 			"/>
		</g>
	</g>
</g>
<g>
	<g>
		<line class="st13" x1="195.4" y1="496.7" x2="73.8" y2="435"/>
		<g>
			<polygon points="77.9,433 74.9,435.6 74.6,439.6 68.4,432.3 			"/>
		</g>
	</g>
</g>
<g>
	<g>
		<line class="st12" x1="318.4" y1="491.3" x2="351.8" y2="441.5"/>
		<g>
			<polygon points="353.3,445.9 351.1,442.6 347.1,441.8 355.1,436.6 			"/>
		</g>
	</g>
</g>
<g>
	<g>
		<line class="st8" x1="295" y1="498.1" x2="176.9" y2="434"/>
		<g>
			<polygon points="181.2,432 178,434.5 177.6,438.5 171.7,431.1 			"/>
		</g>
	</g>
</g>
<g>
	<g>
		<line class="st13" x1="293.1" y1="502.8" x2="76" y2="430.8"/>
		<g>
			<polygon points="79.9,428.2 77.2,431.2 77.5,435.2 70.4,428.9 			"/>
		</g>
	</g>
</g>
<g>
	<g>
		<line class="st12" x1="225" y1="498" x2="344.3" y2="433.2"/>
		<g>
			<polygon points="343.6,437.8 343.2,433.8 340.1,431.3 349.6,430.3 			"/>
		</g>
	</g>
</g>
<g>
	<g>
		<line class="st12" x1="126.3" y1="502.5" x2="342.9" y2="429.9"/>
		<g>
			<polygon points="341.4,434.3 341.7,430.3 339,427.3 348.5,428 			"/>
		</g>
	</g>
</g>
</svg>
